SubjData_BottomUpwalk_36
version=1
nRows=54
nColumns=19
inDegrees=no
endheader
time	l_ground_force_vx	l_ground_force_vy	l_ground_force_vz	l_ground_force_px	l_ground_force_py	l_ground_force_pz	ground_force_vx	ground_force_vy	ground_force_vz	ground_force_px	ground_force_py	ground_force_pz	l_ground_torque_x	l_ground_torque_y	l_ground_torque_z	ground_torque_x	ground_torque_y	ground_torque_z	
30.48	48.0432171218967	176.238821719962	-10.5239897769141	-0.285001496806594	0	-0.0259153545430185	-33.0953737299316	403.662173903623	-10.8202981720949	0.0843266067603017	0	0.0632522509153351	0	66.0653292773325	0	0	2.37364738153852	0
30.49	37.4553082877224	134.618170544243	-7.17748236930172	-0.284120562649488	0	-0.0254659368452232	-35.2664753651594	418.787925655693	-12.0487720917958	0.0815819950369078	0	0.0629069676918902	0	51.2084779350119	0	0	2.24568509684858	0
30.5	27.3889474654934	98.9051712693896	-3.01985644275809	-0.280661672414251	0	-0.0253378739063676	-38.4693032243613	438.557086025565	-13.4743903513288	0.0782441487608037	0	0.0625277590544624	0	37.5816814812105	0	0	1.85877164746669	0
30.51	18.4698766366955	69.3936454339627	1.02086537567208	-0.2734615337137	0	-0.0255894450914977	-42.4472761911297	463.46636740927	-15.1854980835618	0.0744238506559639	0	0.0621193417808003	0	25.7650085760109	0	0	1.33296513670001	0
30.52	11.106529169507	45.9454776512385	4.01624963693794	-0.262908427520472	0	-0.0261744798255214	-46.4840665190833	491.664383671832	-17.1488127640827	0.0702743655506489	0	0.0617926421816143	0	16.034627024559	0	0	1.01823645222078	0
30.53	5.35013427613216	28.1152043491441	5.40222426742068	-0.250471264114025	0	-0.0264638272394235	-49.8938979996945	520.139389601403	-19.3806609925561	0.0660938827809357	0	0.0615199568717251	0	8.48568534593037	0	0	1.14494887595803	0
30.54	0	0	0	0	0	0	-52.4213635809413	546.256722818787	-21.8100064964733	0.0618490723806321	0	0.0612535693825539	0	0	0	0	1.43039725031237	0
30.55	0	0	0	0	0	0	-54.1196189332728	568.5115412247	-24.1637632948774	0.0573539195060998	0	0.0609424854058697	0	0	0	0	1.52337065481018	0
30.56	0	0	0	0	0	0	-55.1760925825302	586.497515689432	-26.1392841121237	0.0524618362721618	0	0.0605615849730449	0	0	0	0	1.3935243316869	0
30.57	0	0	0	0	0	0	-55.8653025822552	600.497521625574	-27.502650979817	0.0471539815292769	0	0.0601607777068175	0	0	0	0	1.08763702213919	0
30.58	0	0	0	0	0	0	-56.3613706265672	610.664797418528	-28.3029235643386	0.04173353669795	0	0.0597879328495592	0	0	0	0	0.788924721193401	0
30.59	0	0	0	0	0	0	-56.7426487986792	616.741184921598	-28.619200650681	0.036600282463005	0	0.0593734660268892	0	0	0	0	0.660000657219985	0
30.6	0	0	0	0	0	0	-56.7116592132181	618.508464825478	-28.2669980858098	0.0317182545369923	0	0.0588791395758425	0	0	0	0	0.734346810377292	0
30.61	0	0	0	0	0	0	-55.938804039814	615.994066258183	-27.0471965528381	0.0268769023613756	0	0.058305381024758	0	0	0	0	0.966608109147177	0
30.62	0	0	0	0	0	0	-54.3130201501662	609.58690852775	-25.1892651030472	0.021784174630244	0	0.0576941932279753	0	0	0	0	1.22976921093435	0
30.63	0	0	0	0	0	0	-52.0100878703197	599.618602592465	-23.2708868537919	0.0162897583985077	0	0.056981132055183	0	0	0	0	1.49809856878121	0
30.64	0	0	0	0	0	0	-49.1290672489743	586.785990666161	-21.5599634492508	0.0104371083071914	0	0.0562774610540565	0	0	0	0	1.6527579418144	0
30.65	0	0	0	0	0	0	-45.9115095991564	572.189133092061	-20.1745898363527	0.00441511416933694	0	0.0556634215252002	0	0	0	0	1.70043997271335	0
30.66	0	0	0	0	0	0	-42.7312683830546	556.991264517285	-19.3320414516765	-0.00139319239345079	0	0.0551456002238916	0	0	0	0	1.83419310693605	0
30.67	0	0	0	0	0	0	-39.7109783919699	542.037678579583	-19.0435398993627	-0.00673426368066552	0	0.0546534632305369	0	0	0	0	2.12796172489333	0
30.68	0	0	0	0	0	0	-36.6714590081025	528.109352851829	-19.0406734806284	-0.0118999271822184	0	0.0541776112331744	0	0	0	0	2.44137421516066	0
30.69	0	0	0	0	0	0	-33.3814873512948	515.673664603691	-19.158658374448	-0.0173332371518517	0	0.0536785872323346	0	0	0	0	2.72360056476129	0
30.7	0	0	0	0	0	0	-29.6652399354219	505.154815903613	-19.2036980665052	-0.0234742809721677	0	0.053297310924688	0	0	0	0	3.06934536069346	0
30.71	0	0	0	0	0	0	-25.4448945442103	496.609237877216	-18.9748327695906	-0.0305370824877373	0	0.0530901977213772	0	0	0	0	3.58143868822621	0
30.72	0	0	0	0	0	0	-21.018781748127	489.842842814066	-18.473048988959	-0.0384110671792212	0	0.0531088690064612	0	0	0	0	4.18922353736715	0
30.73	0	0	0	0	0	0	-16.9568469514754	484.489238216256	-17.9008717154801	-0.0466161038641308	0	0.0532305750577026	0	0	0	0	4.67762903895808	0
30.74	0	0	0	0	0	0	-13.6154178683923	480.45575326497	-17.5281354249732	-0.0544830844657458	0	0.0533684150692385	0	0	0	0	5.04873228578896	0
30.75	0	0	0	0	0	0	-10.9211251315399	477.689134604454	-17.1915075424179	-0.0618303732194117	0	0.0535262055659918	0	0	0	0	5.37049999656773	0
30.76	0	0	0	0	0	0	-8.51286294359812	476.10235884182	-16.5266500522729	-0.0690358704661565	0	0.0537734789984915	0	0	0	0	5.59194066541074	0
30.77	0	0	0	0	0	0	-6.11917196595158	475.387674389417	-15.6065943227525	-0.076504111671537	0	0.0539383237129924	0	0	0	0	5.68587444416958	0
30.78	0	0	0	0	0	0	-3.42806904803148	475.481163549082	-14.6658804371092	-0.0846701184121005	0	0.0540095726633782	0	0	0	0	5.78624189274004	0
30.79	0	0	0	0	0	0	-0.549157295343398	476.391363807194	-13.9800421731064	-0.0938061441303842	0	0.0539286634110738	0	0	0	0	5.82584849890219	0
30.8	0	0	0	0	0	0	2.50966361935322	478.375083633911	-13.5908065380685	-0.103839234333534	0	0.0537260418806149	0	0	0	0	5.71931051671903	0
30.81	0	0	0	0	0	0	5.8836559063564	481.784797755494	-13.5156570393949	-0.114321028962813	0	0.0534384025460609	0	0	0	0	5.66572980024017	0
30.82	0	0	0	0	0	0	9.66691000364063	486.764376217357	-13.7378398100946	-0.124578391498132	0	0.0531913873025866	0	0	0	0	5.77862935613638	0
30.83	0	0	0	0	0	0	13.5495460740545	492.983224154013	-14.2550264993808	-0.134071263276862	0	0.0529597573956104	0	0	0	0	5.92166849544585	0
30.84	0	0	0	0	0	0	17.4429400864781	500.027856462668	-15.0088620318618	-0.143131663222303	0	0.0527531770436937	0	0	0	0	5.98315973105345	0
30.85	0	0	0	0	0	0	21.699108415689	507.457613504969	-15.9217246982314	-0.152559011217929	0	0.0525111935579953	0	0	0	0	6.07543008607165	0
30.86	0	0	0	0	0	0	26.7905194707057	515.25152196555	-16.8927155703864	-0.162795422311306	0	0.0524044946467746	0	0	0	0	6.397020238326	0
30.87	0	0	0	0	0	0	32.8119280348168	523.277401636565	-17.7993886703856	-0.173522108164441	0	0.0524774635327413	0	0	0	0	6.8625171141438	0
30.88	0	0	0	0	0	0	39.5103994071437	531.445399792685	-18.607689797503	-0.184033087394048	0	0.0526574574967141	0	0	0	0	7.41946691406042	0
30.89	0	0	0	0	0	0	46.5781541890548	539.572684867939	-19.3653696391938	-0.194061450767123	0	0.0527660638254078	0	0	0	0	8.01551494380936	0
30.9	0	0	0	0	0	0	53.8816283126353	547.565881441166	-20.3087248456827	-0.203721800646402	0	0.052792333396859	0	0	0	0	8.67458654413632	0
30.91	0	0	0	0	0	0	61.2461546324858	555.225949105992	-21.5165571126625	-0.212779500386724	0	0.0527494735292936	0	0	0	0	9.55240393750911	0
30.92	0	0	0	0	0	0	68.3649977730566	562.007418770351	-22.7492302886383	-0.221076224441647	0	0.0527468657894802	0	0	0	0	10.4721916507069	0
30.93	8.31468726171212	31.1211221335886	0.274054320648118	0.183958173156778	0	-0.0453768215551796	75.1739852891744	566.584823848562	-23.6273946962068	-0.22877922600726	0	0.0529138432305433	0	12.2412087373508	0	0	10.9018893047631	0
30.94	15.3379824592724	58.2640875872037	-1.23899545368517	0.169501762741791	0	-0.0541506679542456	81.6284359165233	567.189635596155	-23.9486230807399	-0.236226322774941	0	0.0532719310103409	0	22.2261204343468	0	0	10.6987260179707	0
30.95	19.8681370638702	89.6414525147433	-2.88294905784542	0.156478636502592	0	-0.0560571575070228	87.7152042602913	562.298280618364	-23.4471776366463	-0.243756369289918	0	0.0537737553215358	0	29.2610115853962	0	0	10.3428409998058	0
30.96	18.7436727088173	122.258810745133	-4.57833219531467	0.145057980136452	0	-0.0558208859044984	93.1332994873804	550.819640030255	-21.9934071128707	-0.251256932077057	0	0.0543455272894815	0	29.5079983488763	0	0	10.2543973029136	0
30.97	13.3594183450099	156.871510509957	-5.84590952862097	0.135440652862861	0	-0.0556099196246212	97.3426064926473	532.242311328217	-19.577025218253	-0.258316705771659	0	0.0549369736045354	0	24.6195332107764	0	0	10.5016058320763	0
30.98	4.52938899346299	195.080308808526	-5.91972426435912	0.127304344705788	0	-0.0557345959575241	99.7695425480035	506.722235588746	-16.4035203917323	-0.264771690609934	0	0.0555522107307806	0	15.3966373410539	0	0	10.9702065688872	0
30.99	-6.45727951823197	238.818981420782	-4.63926051604336	0.121190507238782	0	-0.0561664199286092	99.973913492476	474.813483463585	-12.9988607288888	-0.270571384319068	0	0.0561558572977824	0	3.40135815055769	0	0	11.4248055286163	0
31	-19.0087814268135	288.599953393492	-1.96332670137735	0.117439351695898	0	-0.0567746644037033	97.6044551913909	437.23112170501	-9.58618016463906	-0.275800017143958	0	0.0567617938915086	0	-10.6541421770261	0	0	11.6285438374564	0
31.01	-32.743256604767	341.371174417009	1.99734640249506	0.115804769169333	0	-0.0573356419833784	92.2312900459054	394.663290414633	-6.2174754502164	-0.280891039416069	0	0.0573747946473012	0	-26.3654892960647	0	0	11.3441558808943	0
